<svg width="140" height="29" viewBox="0 0 140 29" fill="none" xmlns="http://www.w3.org/2000/svg">
<path d="M23.2558 15.11L15.7653 10.9128L17.1859 10.1379C17.8316 9.81504 18.6065 9.68589 19.3168 9.94418L22.8683 11.3648H22.9329C24.1598 11.6231 25.3221 10.8482 25.645 9.68589L18.8002 6.3281C18.4774 6.19895 18.1545 6.19895 17.8316 6.3281L13.3115 8.65273C12.3429 9.16931 11.116 9.04016 10.2766 8.39443L9.88916 8.07157L16.6047 3.09945C17.6379 2.32458 18.9939 2.13086 20.2208 2.64744L31.9731 7.68413C31.9731 7.68413 37.6555 11.2356 35.9121 18.0804C34.7497 22.4713 31.3919 26.4103 26.7427 28.6703C26.7427 28.6703 31.2628 24.6668 29.261 19.5655C28.6799 17.9512 26.1615 16.8535 23.2558 15.11Z" fill="#FF7F0F"/>
<path d="M12.9241 13.4957L20.4146 17.693L18.994 18.4679C18.3483 18.7907 17.5734 18.9199 16.8631 18.6616L13.3116 17.241H13.247C12.0201 16.9827 10.8578 17.7576 10.5349 18.9199L17.3797 22.2777C17.7025 22.4068 18.0254 22.4068 18.3483 22.2777L22.8684 19.953C23.837 19.4365 25.0638 19.5656 25.9033 20.2113L26.2907 20.4696L19.5751 25.5063C18.542 26.2812 17.1859 26.4749 16.0236 26.0229L4.27136 20.9862C4.27136 20.9862 -1.41106 17.4347 0.332414 10.59C1.49473 6.199 4.85252 2.26005 9.50177 0C9.50177 0 4.98166 4.00352 6.98342 9.10478C7.56458 10.6545 10.0183 11.6877 12.9241 13.4957Z" fill="#1D3A5F"/>
<path d="M52.0798 23.1905C50.2959 23.1905 48.5757 22.9993 46.9193 22.6171C45.2628 22.2348 43.9886 21.7889 42.9692 21.2792L44.8805 18.2211C45.8362 18.7308 46.983 19.113 48.3209 19.4316C49.6588 19.7501 50.9967 19.8775 52.3346 19.8775C53.8637 19.8775 55.0105 19.6864 55.7113 19.3679C56.4121 19.0493 56.7944 18.6033 56.7944 18.0299C56.7944 17.584 56.5395 17.2017 56.0935 16.9469C55.5839 16.692 55.0105 16.5009 54.1822 16.3735C53.4177 16.2461 52.5258 16.1186 51.5701 15.9912C50.6145 15.8638 49.6588 15.7364 48.7032 15.5452C47.7475 15.3541 46.9193 15.0993 46.091 14.717C45.2628 14.3347 44.8805 14.0162 44.3709 13.3791C43.8612 12.8057 43.6701 11.9775 43.6701 10.9581C43.6701 9.87503 44.0523 8.98309 44.8168 8.15486C45.5814 7.32662 46.6644 6.75323 48.0661 6.30726C49.4677 5.86129 51.1241 5.60645 53.0355 5.60645C54.4371 5.60645 55.9024 5.73387 57.3678 5.98871C58.8331 6.24355 60.1073 6.62581 61.063 7.07178L59.1516 10.1936C58.1323 9.74761 57.1766 9.42906 56.0935 9.23793C55.0742 9.0468 54.0548 8.98309 53.0355 8.98309C51.5701 8.98309 50.4233 9.17422 49.6588 9.49277C48.8943 9.81132 48.512 10.321 48.512 10.8307C48.512 11.3404 48.7669 11.7226 49.2128 11.9775C49.7225 12.2323 50.2959 12.4234 51.1241 12.5509C51.8887 12.6783 52.7806 12.8057 53.7363 12.9331C54.6919 13.0605 55.6476 13.188 56.5395 13.3791C57.4952 13.5702 58.3234 13.8251 59.1516 14.1436C59.9162 14.4622 60.5533 14.9081 61.063 15.5452C61.5726 16.1186 61.7638 16.9469 61.7638 17.9025C61.7638 18.9856 61.3815 19.9413 60.5533 20.7058C59.7887 21.4703 58.642 22.1074 57.2403 22.5534C55.8387 22.9993 54.1185 23.1905 52.0798 23.1905Z" fill="#1D3A5F"/>
<path d="M74.3784 23.1905C72.0211 23.1905 69.9187 22.8082 68.1348 22.0437C66.3509 21.2792 65.013 20.2598 63.9937 18.9219C63.038 17.584 62.5283 16.1186 62.5283 14.3985C62.5283 12.6783 62.9743 11.1492 63.9299 9.87503C64.8856 8.53712 66.1598 7.51775 67.88 6.75323C69.5364 5.98871 71.4478 5.60645 73.6139 5.60645C75.7163 5.60645 77.5639 5.98871 79.1567 6.68952C80.8132 7.45404 82.0874 8.47341 82.9793 9.81132C83.935 11.1492 84.3809 12.6783 84.3809 14.5259C84.3809 14.6533 84.3809 14.8444 84.3809 15.0993C84.3809 15.3541 84.3172 15.5452 84.3172 15.6727H66.4784V12.9968H81.6414L79.6664 13.8251C79.6664 12.8694 79.4752 11.9775 78.9019 11.2767C78.3922 10.5121 77.6914 9.93874 76.7357 9.49277C75.8438 9.0468 74.7607 8.85567 73.5502 8.85567C72.3397 8.85567 71.2566 9.0468 70.301 9.49277C69.3453 9.93874 68.6445 10.5121 68.1348 11.2767C67.6251 12.0412 67.3703 12.9331 67.3703 13.9525V14.5896C67.3703 15.609 67.6251 16.5009 68.1985 17.3291C68.7719 18.0937 69.6002 18.7308 70.6832 19.1767C71.7663 19.6227 72.9768 19.8138 74.3784 19.8138C75.5889 19.8138 76.672 19.6227 77.6276 19.3042C78.5833 18.9856 79.4115 18.5396 80.1761 17.9025L82.9156 20.3872C81.9599 21.2792 80.6857 21.98 79.2841 22.4259C77.8825 22.9993 76.226 23.1905 74.3784 23.1905Z" fill="#1D3A5F"/>
<path d="M91.8989 22.9994L82.7246 5.86133H87.8851L95.7852 20.9607H93.2368L101.392 5.86133H106.17L97.0594 22.9994H91.8989Z" fill="#1D3A5F"/>
<path d="M114.197 23.1907C112.604 23.1907 111.203 22.9996 109.992 22.5536C108.782 22.1077 107.89 21.5343 107.189 20.706C106.552 19.9415 106.233 19.0496 106.233 18.0302C106.233 17.0745 106.552 16.1826 107.125 15.4181C107.699 14.6536 108.654 14.0165 109.929 13.5705C111.267 13.1245 112.987 12.8697 115.153 12.8697H121.333V15.5455H115.471C113.815 15.5455 112.668 15.7366 112.031 16.1826C111.458 16.6286 111.139 17.202 111.139 17.8391C111.139 18.5399 111.521 19.1133 112.222 19.5592C112.923 20.0052 113.942 20.1963 115.217 20.1963C116.427 20.1963 117.574 19.9415 118.529 19.4955C119.485 19.0496 120.186 18.4125 120.696 17.5205L121.524 19.9415C121.014 20.9609 120.186 21.7254 118.975 22.2988C117.701 22.9359 116.108 23.1907 114.197 23.1907ZM120.95 22.9996V19.4955L120.696 18.7947V12.7422C120.696 11.5955 120.25 10.6398 119.358 10.0027C118.466 9.3656 117.128 9.04705 115.28 9.04705C114.133 9.04705 112.923 9.17447 111.776 9.49302C110.629 9.81158 109.61 10.1938 108.846 10.7672L106.871 7.83656C108.017 7.13574 109.419 6.62606 111.012 6.2438C112.604 5.86154 114.197 5.67041 115.917 5.67041C119.039 5.67041 121.46 6.2438 123.117 7.4543C124.773 8.66479 125.665 10.5124 125.665 12.9971V22.9996H120.95Z" fill="#1D3A5F"/>
<path d="M133.119 22.6171C136.919 22.6171 140 19.5365 140 15.7364C140 11.9363 136.919 8.85571 133.119 8.85571C129.319 8.85571 126.238 11.9363 126.238 15.7364C126.238 19.5365 129.319 22.6171 133.119 22.6171Z" fill="#F16B3B"/>
<path d="M130.188 12.6785V15.1632H126.939V12.6785H125.665V18.8584H126.939V16.2462H130.188V18.8584H131.526V12.6785H130.188Z" fill="white"/>
<path d="M136.687 16.8196C137.069 16.6285 137.388 16.3737 137.579 16.1188C137.834 15.8003 137.961 15.3543 137.961 14.9083C137.961 14.4624 137.834 14.0164 137.579 13.6978C137.324 13.3793 137.005 13.1244 136.559 12.9333C136.113 12.7422 135.667 12.6785 135.094 12.6785H132.482V18.8584H133.756V17.0745H135.094C135.221 17.0745 135.285 17.0745 135.349 17.0745L136.687 18.8584H138.152L136.687 16.8196ZM133.756 13.7615H135.094C135.604 13.7615 136.05 13.889 136.305 14.0801C136.559 14.2712 136.687 14.5261 136.687 14.9083C136.687 15.2906 136.559 15.5454 136.305 15.7366C136.05 15.9277 135.667 16.0551 135.094 16.0551H133.756V13.7615Z" fill="white"/>
</svg>
