<svg width="27" height="30" viewBox="0 0 27 30" fill="none" xmlns="http://www.w3.org/2000/svg">
<path d="M20.8636 30H6.13636C4.5095 29.998 2.94982 29.3389 1.79945 28.1672C0.649082 26.9956 0.00194873 25.407 0 23.75V6.25C0.00194873 4.59301 0.649082 3.00445 1.79945 1.83277C2.94982 0.661102 4.5095 0.00198482 6.13636 0L20.8636 0C22.4905 0.00198482 24.0502 0.661102 25.2005 1.83277C26.3509 3.00445 26.9981 4.59301 27 6.25V23.75C26.9981 25.407 26.3509 26.9956 25.2005 28.1672C24.0502 29.3389 22.4905 29.998 20.8636 30ZM6.13636 2.5C5.15988 2.5 4.2234 2.89509 3.53293 3.59835C2.84245 4.30161 2.45455 5.25544 2.45455 6.25V23.75C2.45455 24.7446 2.84245 25.6984 3.53293 26.4017C4.2234 27.1049 5.15988 27.5 6.13636 27.5H20.8636C21.8401 27.5 22.7766 27.1049 23.4671 26.4017C24.1576 25.6984 24.5455 24.7446 24.5455 23.75V6.25C24.5455 5.25544 24.1576 4.30161 23.4671 3.59835C22.7766 2.89509 21.8401 2.5 20.8636 2.5H6.13636ZM18.4091 12.5H8.59091C7.61443 12.5 6.67795 12.1049 5.98747 11.4017C5.297 10.6984 4.90909 9.74456 4.90909 8.75C4.90909 7.75544 5.297 6.80161 5.98747 6.09835C6.67795 5.39509 7.61443 5 8.59091 5H18.4091C19.3856 5 20.3221 5.39509 21.0125 6.09835C21.703 6.80161 22.0909 7.75544 22.0909 8.75C22.0909 9.74456 21.703 10.6984 21.0125 11.4017C20.3221 12.1049 19.3856 12.5 18.4091 12.5ZM8.59091 7.5C8.26542 7.5 7.95325 7.6317 7.7231 7.86612C7.49294 8.10054 7.36364 8.41848 7.36364 8.75C7.36364 9.08152 7.49294 9.39946 7.7231 9.63388C7.95325 9.8683 8.26542 10 8.59091 10H18.4091C18.7346 10 19.0467 9.8683 19.2769 9.63388C19.5071 9.39946 19.6364 9.08152 19.6364 8.75C19.6364 8.41848 19.5071 8.10054 19.2769 7.86612C19.0467 7.6317 18.7346 7.5 18.4091 7.5H8.59091ZM6.13636 16.25C5.89363 16.25 5.65635 16.3233 5.45453 16.4607C5.2527 16.598 5.0954 16.7932 5.00251 17.0216C4.90962 17.2501 4.88532 17.5014 4.93267 17.7439C4.98003 17.9863 5.09691 18.2091 5.26855 18.3839C5.44019 18.5587 5.65887 18.6778 5.89693 18.726C6.135 18.7742 6.38177 18.7495 6.60602 18.6548C6.83028 18.5602 7.02195 18.4 7.1568 18.1945C7.29166 17.9889 7.36364 17.7472 7.36364 17.5C7.36364 17.1685 7.23433 16.8505 7.00418 16.6161C6.77402 16.3817 6.46186 16.25 6.13636 16.25ZM11.0455 16.25C10.8027 16.25 10.5654 16.3233 10.3636 16.4607C10.1618 16.598 10.0045 16.7932 9.9116 17.0216C9.81871 17.2501 9.79441 17.5014 9.84176 17.7439C9.88912 17.9863 10.006 18.2091 10.1776 18.3839C10.3493 18.5587 10.568 18.6778 10.806 18.726C11.0441 18.7742 11.2909 18.7495 11.5151 18.6548C11.7394 18.5602 11.931 18.4 12.0659 18.1945C12.2007 17.9889 12.2727 17.7472 12.2727 17.5C12.2727 17.1685 12.1434 16.8505 11.9133 16.6161C11.6831 16.3817 11.3709 16.25 11.0455 16.25ZM15.9545 16.25C15.7118 16.25 15.4745 16.3233 15.2727 16.4607C15.0709 16.598 14.9136 16.7932 14.8207 17.0216C14.7278 17.2501 14.7035 17.5014 14.7509 17.7439C14.7982 17.9863 14.9151 18.2091 15.0867 18.3839C15.2584 18.5587 15.477 18.6778 15.7151 18.726C15.9532 18.7742 16.1999 18.7495 16.4242 18.6548C16.6485 18.5602 16.8401 18.4 16.975 18.1945C17.1098 17.9889 17.1818 17.7472 17.1818 17.5C17.1818 17.1685 17.0525 16.8505 16.8224 16.6161C16.5922 16.3817 16.28 16.25 15.9545 16.25ZM6.13636 21.25C5.89363 21.25 5.65635 21.3233 5.45453 21.4607C5.2527 21.598 5.0954 21.7932 5.00251 22.0216C4.90962 22.2501 4.88532 22.5014 4.93267 22.7439C4.98003 22.9863 5.09691 23.2091 5.26855 23.3839C5.44019 23.5587 5.65887 23.6778 5.89693 23.726C6.135 23.7742 6.38177 23.7495 6.60602 23.6548C6.83028 23.5602 7.02195 23.4 7.1568 23.1945C7.29166 22.9889 7.36364 22.7472 7.36364 22.5C7.36364 22.1685 7.23433 21.8505 7.00418 21.6161C6.77402 21.3817 6.46186 21.25 6.13636 21.25ZM11.0455 21.25C10.8027 21.25 10.5654 21.3233 10.3636 21.4607C10.1618 21.598 10.0045 21.7932 9.9116 22.0216C9.81871 22.2501 9.79441 22.5014 9.84176 22.7439C9.88912 22.9863 10.006 23.2091 10.1776 23.3839C10.3493 23.5587 10.568 23.6778 10.806 23.726C11.0441 23.7742 11.2909 23.7495 11.5151 23.6548C11.7394 23.5602 11.931 23.4 12.0659 23.1945C12.2007 22.9889 12.2727 22.7472 12.2727 22.5C12.2727 22.1685 12.1434 21.8505 11.9133 21.6161C11.6831 21.3817 11.3709 21.25 11.0455 21.25ZM20.8636 16.25C20.6209 16.25 20.3836 16.3233 20.1818 16.4607C19.98 16.598 19.8227 16.7932 19.7298 17.0216C19.6369 17.2501 19.6126 17.5014 19.6599 17.7439C19.7073 17.9863 19.8242 18.2091 19.9958 18.3839C20.1675 18.5587 20.3861 18.6778 20.6242 18.726C20.8623 18.7742 21.109 18.7495 21.3333 18.6548C21.5575 18.5602 21.7492 18.4 21.8841 18.1945C22.0189 17.9889 22.0909 17.7472 22.0909 17.5C22.0909 17.1685 21.9616 16.8505 21.7315 16.6161C21.5013 16.3817 21.1891 16.25 20.8636 16.25ZM22.0909 22.5C22.0909 22.1685 21.9616 21.8505 21.7315 21.6161C21.5013 21.3817 21.1891 21.25 20.8636 21.25H15.9545C15.6291 21.25 15.3169 21.3817 15.0867 21.6161C14.8566 21.8505 14.7273 22.1685 14.7273 22.5C14.7273 22.8315 14.8566 23.1495 15.0867 23.3839C15.3169 23.6183 15.6291 23.75 15.9545 23.75H20.8636C21.1891 23.75 21.5013 23.6183 21.7315 23.3839C21.9616 23.1495 22.0909 22.8315 22.0909 22.5Z" fill="#0036F5"/>
</svg>
