<svg width="30" height="30" viewBox="0 0 30 30" fill="none" xmlns="http://www.w3.org/2000/svg">
<path d="M28.0748 11.3087L27.4998 10.7575V10C27.4998 7.2425 25.2571 5 22.4994 5H7.49813C4.7404 5 2.49771 7.2425 2.49771 10V10.7625L1.92517 11.31C0.701316 12.4825 7.17164e-06 14.1287 7.17164e-06 15.8225V23.7488C-0.00249304 25.4188 0.648811 26.9887 1.82891 28.1687C3.00901 29.3487 4.57914 30 6.24928 30H23.7495C27.196 30 30 27.1962 30 23.75V15.8212C30 14.1262 29.2974 12.48 28.0748 11.3087ZM7.49813 7.5H22.4994C23.8782 7.5 24.9996 8.62125 24.9996 10V14.0525L17.6502 21.4013C16.2339 22.8175 13.7637 22.8175 12.3473 21.4013L4.99792 14.0525V10C4.99792 8.62125 6.11927 7.5 7.49813 7.5ZM27.4998 23.75C27.4998 25.8175 25.8172 27.5 23.7495 27.5H6.24928C5.24669 27.5 4.30411 27.11 3.59656 26.4013C2.889 25.6938 2.49896 24.7513 2.49896 23.7488V15.8225C2.49896 15.5987 2.52897 15.3762 2.56772 15.1587L10.5784 23.1687C11.7572 24.3487 13.3274 25 14.9975 25C16.6676 25 18.2378 24.3487 19.4166 23.1687L27.4298 15.1562C27.4698 15.375 27.4985 15.5975 27.4985 15.8212L27.4998 23.75ZM6.24803 1.25C6.24803 0.55875 6.80682 0 7.49813 0H22.4994C23.1907 0 23.7495 0.55875 23.7495 1.25C23.7495 1.94125 23.1907 2.5 22.4994 2.5H7.49813C6.80682 2.5 6.24803 1.94125 6.24803 1.25ZM19.9992 10.625C19.9992 9.5875 20.8367 8.75 21.8743 8.75C22.9119 8.75 23.7495 9.5875 23.7495 10.625C23.7495 11.6625 22.9119 12.5 21.8743 12.5C20.8367 12.5 19.9992 11.6625 19.9992 10.625ZM14.9988 20C17.4115 20 19.3741 18.0375 19.3741 15.625C19.3741 13.2125 17.4115 11.25 14.9988 11.25C12.5861 11.25 10.6234 13.2125 10.6234 15.625C10.6234 18.0375 12.5861 20 14.9988 20ZM14.9988 13.75C16.0326 13.75 16.8739 14.5912 16.8739 15.625C16.8739 16.6588 16.0326 17.5 14.9988 17.5C13.9649 17.5 13.1236 16.6588 13.1236 15.625C13.1236 14.5912 13.9649 13.75 14.9988 13.75ZM6.24803 10.625C6.24803 9.5875 7.0856 8.75 8.12318 8.75C9.16077 8.75 9.99834 9.5875 9.99834 10.625C9.99834 11.6625 9.16077 12.5 8.12318 12.5C7.0856 12.5 6.24803 11.6625 6.24803 10.625Z" fill="#0036F5"/>
</svg>
