<svg width="27" height="30" viewBox="0 0 27 30" fill="none" xmlns="http://www.w3.org/2000/svg">
<path d="M13.5001 20.0002C14.0716 20.0013 14.6354 19.8669 15.1471 19.6076L17.6016 18.3577C18.8527 17.725 19.6419 16.4229 19.6365 15.0002V11.2915C19.6408 9.87011 18.8517 8.56969 17.6016 7.93783L15.1471 6.68786C14.11 6.16287 12.8914 6.16287 11.8543 6.68786L9.39975 7.93783C8.1492 8.56934 7.35962 9.86987 7.3637 11.2915V15.0002C7.35921 16.422 8.14822 17.7229 9.39854 18.3552L11.8531 19.6052C12.3645 19.8653 12.9284 20.0005 13.5001 20.0002ZM9.81827 15.0002V11.2915C9.82022 11.164 9.84134 11.0375 9.88086 10.9165L12.5563 12.279C13.1505 12.5814 13.8497 12.5814 14.4439 12.279L17.1194 10.9165C17.1589 11.0375 17.18 11.164 17.182 11.2915V15.0002C17.1839 15.4745 16.9206 15.9085 16.5033 16.1189L14.0487 17.3689C13.7026 17.5433 13.2964 17.5433 12.9503 17.3689L10.4958 16.1189C10.0789 15.9082 9.81608 15.4742 9.81827 15.0002ZM22.091 27.5001H18.7663L23.0458 23.4726C28.318 18.103 28.3181 9.39715 23.0461 4.02738C17.774 -1.34238 9.22641 -1.34244 3.95422 4.02709C-1.31797 9.39662 -1.31808 18.1026 3.95393 23.4723C3.9655 23.4841 8.23388 27.5001 8.23388 27.5001H4.90919C4.23139 27.5001 3.68194 28.0597 3.68194 28.75C3.68194 29.4404 4.23139 30 4.90919 30H22.091C22.7688 30 23.3183 29.4404 23.3183 28.75C23.3183 28.0597 22.7688 27.5001 22.091 27.5001ZM5.68974 5.79531C9.99379 1.39192 16.9877 1.37599 21.3111 5.75969C25.6344 10.1434 25.6501 17.2667 21.346 21.6701L16.4554 26.2713C14.7861 27.8738 12.1772 27.8645 10.5191 26.25L5.68974 21.7051C1.38288 17.3089 1.38293 10.1916 5.68974 5.79531Z" fill="#0036F5"/>
</svg>
