<svg width="67" height="53" viewBox="0 0 67 53" fill="none" xmlns="http://www.w3.org/2000/svg">
<path d="M42.9892 27.9318L29.1426 20.173L31.7687 18.7406C32.9624 18.1437 34.3948 17.905 35.7078 18.3825L42.273 21.0085H42.3923C44.6603 21.486 46.8089 20.0536 47.4057 17.905L34.7529 11.6979C34.156 11.4592 33.5592 11.4592 32.9624 11.6979L24.6067 15.9951C22.8162 16.9501 20.5482 16.7113 18.9965 15.5177L18.2803 14.9208L30.6944 5.7296C32.6043 4.2972 35.111 3.9391 37.3789 4.89403L59.1037 14.2046C59.1037 14.2046 69.6079 20.7698 66.385 33.4227C64.2364 41.5396 58.0294 48.821 49.435 52.9988C49.435 52.9988 57.7906 45.5981 54.0903 36.1681C53.016 33.1839 48.3607 31.1547 42.9892 27.9318Z" fill="#FF7F0F"/>
<path d="M23.891 24.9476L37.7375 32.7065L35.1114 34.1389C33.9178 34.7357 32.4854 34.9744 31.1723 34.497L24.6072 31.8709H24.4878C22.2198 31.3934 20.0712 32.8258 19.4744 34.9744L32.1273 41.1815C32.7241 41.4202 33.3209 41.4202 33.9178 41.1815L42.2734 36.8843C44.0639 35.9294 46.3319 36.1681 47.8837 37.3618L48.5999 37.8392L36.1857 47.1498C34.2759 48.5822 31.7692 48.9403 29.6206 48.1048L7.89585 38.7942C7.89585 38.7942 -2.60841 32.229 0.614485 19.5761C2.76308 11.4592 8.97015 4.17783 17.5645 0C17.5645 0 9.20888 7.40073 12.9092 16.8307C13.9835 19.6955 18.5195 21.6054 23.891 24.9476Z" fill="#1D3A5F"/>
</svg>
