<svg width="24" height="24" viewBox="0 0 24 24" fill="none" xmlns="http://www.w3.org/2000/svg">
<g clip-path="url(#clip0_3927_1266)">
<path d="M17 10C14.132 10 11.664 11.735 10.584 14.21C10.418 14.087 10.223 14 10 14C9.448 14 9 14.447 9 15V17C9 17.553 9.448 18 10 18C10.027 18 10.051 17.987 10.078 17.984C10.559 21.378 13.476 24 17 24C20.86 24 24 20.859 24 17C24 13.141 20.86 10 17 10ZM17 22C14.243 22 12 19.757 12 17C12 14.243 14.243 12 17 12C19.757 12 22 14.243 22 17C22 19.757 19.757 22 17 22ZM20.221 15.788C20.604 16.186 20.591 16.819 20.192 17.202L17.98 19.326C17.528 19.772 16.928 19.997 16.327 19.997C15.726 19.997 15.123 19.772 14.663 19.323L13.531 18.215C13.136 17.828 13.13 17.195 13.516 16.801C13.903 16.406 14.536 16.4 14.93 16.785L16.062 17.893C16.206 18.034 16.441 18.035 16.584 17.893L18.807 15.759C19.205 15.378 19.838 15.389 20.221 15.788ZM10 23C10 23.553 9.552 24 9 24H5C2.243 24 0 21.757 0 19V13C0 10.955 1.237 9.198 3 8.424V7C3 3.14 6.14 0 10 0C13.86 0 17 3.14 17 7C17 7.552 16.552 8 16 8C15.448 8 15 7.552 15 7C15 4.243 12.757 2 10 2C7.243 2 5 4.243 5 7V8H13C13.552 8 14 8.448 14 9C14 9.552 13.552 10 13 10H5C3.346 10 2 11.346 2 13V19C2 20.654 3.346 22 5 22H9C9.552 22 10 22.447 10 23Z" fill="black"/>
<path d="M17 10C14.132 10 11.664 11.735 10.584 14.21C10.418 14.087 10.223 14 10 14C9.448 14 9 14.447 9 15V17C9 17.553 9.448 18 10 18C10.027 18 10.051 17.987 10.078 17.984C10.559 21.378 13.476 24 17 24C20.86 24 24 20.859 24 17C24 13.141 20.86 10 17 10ZM17 22C14.243 22 12 19.757 12 17C12 14.243 14.243 12 17 12C19.757 12 22 14.243 22 17C22 19.757 19.757 22 17 22ZM20.221 15.788C20.604 16.186 20.591 16.819 20.192 17.202L17.98 19.326C17.528 19.772 16.928 19.997 16.327 19.997C15.726 19.997 15.123 19.772 14.663 19.323L13.531 18.215C13.136 17.828 13.13 17.195 13.516 16.801C13.903 16.406 14.536 16.4 14.93 16.785L16.062 17.893C16.206 18.034 16.441 18.035 16.584 17.893L18.807 15.759C19.205 15.378 19.838 15.389 20.221 15.788ZM10 23C10 23.553 9.552 24 9 24H5C2.243 24 0 21.757 0 19V13C0 10.955 1.237 9.198 3 8.424V7C3 3.14 6.14 0 10 0C13.86 0 17 3.14 17 7C17 7.552 16.552 8 16 8C15.448 8 15 7.552 15 7C15 4.243 12.757 2 10 2C7.243 2 5 4.243 5 7V8H13C13.552 8 14 8.448 14 9C14 9.552 13.552 10 13 10H5C3.346 10 2 11.346 2 13V19C2 20.654 3.346 22 5 22H9C9.552 22 10 22.447 10 23Z" fill="url(#paint0_linear_3927_1266)"/>
</g>
<defs>
<linearGradient id="paint0_linear_3927_1266" x1="3.67863" y1="2.4" x2="20.5029" y2="25.3415" gradientUnits="userSpaceOnUse">
<stop stop-color="#476FFF"/>
<stop offset="1" stop-color="#4600B6"/>
</linearGradient>
<clipPath id="clip0_3927_1266">
<rect width="24" height="24" fill="white"/>
</clipPath>
</defs>
</svg>
