<svg width="13" height="15" viewBox="0 0 13 15" fill="none" xmlns="http://www.w3.org/2000/svg">
<path d="M0 7.0286V2.46182C0 0.569748 2.0486 -0.613826 3.68528 0.333582L7.64243 2.61835L11.5996 4.90311C13.239 5.84777 13.239 8.21492 11.5996 9.15958L7.64243 11.4443L3.68528 13.7291C2.0486 14.671 0 13.4902 0 11.5981V7.0286Z" fill="white"/>
<path d="M0 7.0286V2.46182C0 0.569748 2.0486 -0.613826 3.68528 0.333582L7.64243 2.61835L11.5996 4.90311C13.239 5.84777 13.239 8.21492 11.5996 9.15958L7.64243 11.4443L3.68528 13.7291C2.0486 14.671 0 13.4902 0 11.5981V7.0286Z" fill="url(#paint0_linear_3927_1008)"/>
<defs>
<linearGradient id="paint0_linear_3927_1008" x1="0.641457" y1="-1.66134e-07" x2="7.40119" y2="11.2159" gradientUnits="userSpaceOnUse">
<stop stop-color="#476FFF"/>
<stop offset="1" stop-color="#4600B6"/>
</linearGradient>
</defs>
</svg>
