<svg width="40" height="40" viewBox="0 0 40 40" fill="none" xmlns="http://www.w3.org/2000/svg">
<path d="M19.9992 36.6453H8.33299C5.57643 36.6453 3.33319 34.4033 3.33319 31.6482V8.32847C3.33319 5.57342 5.57643 3.33139 8.33299 3.33139H15.8577C16.1293 3.33139 16.3993 3.34472 16.666 3.3697V11.6599C16.666 14.4149 18.9092 16.6569 21.6658 16.6569H31.3537C31.8687 16.6569 32.3553 16.4188 32.6703 16.0123C32.9853 15.6059 33.0953 15.0762 32.9686 14.5782C32.4503 12.5527 31.3954 10.6988 29.9138 9.21962L24.1073 3.41634C21.9041 1.21429 18.9742 0 15.8577 0H8.33299C3.73818 0 0 3.73615 0 8.32847V31.6482C0 36.2405 3.73818 39.9767 8.33299 39.9767H19.9992C20.9208 39.9767 21.6658 39.2321 21.6658 38.311C21.6658 37.3899 20.9208 36.6453 19.9992 36.6453ZM19.9992 4.42908C20.6325 4.7922 21.2191 5.24194 21.7508 5.77163L27.5572 11.5749C28.0805 12.0979 28.5305 12.6876 28.8971 13.3256H21.6658C20.7458 13.3256 19.9992 12.5793 19.9992 11.6599V4.42908ZM18.3326 29.9825C18.3326 30.9036 17.5876 31.6482 16.666 31.6482H8.33299C7.41136 31.6482 6.66639 30.9036 6.66639 29.9825C6.66639 29.0614 7.41136 28.3168 8.33299 28.3168H16.666C17.5876 28.3168 18.3326 29.0614 18.3326 29.9825ZM18.3326 23.3197C18.3326 24.2409 17.5876 24.9854 16.666 24.9854H8.33299C7.41136 24.9854 6.66639 24.2409 6.66639 23.3197C6.66639 22.3986 7.41136 21.654 8.33299 21.654H16.666C17.5876 21.654 18.3326 22.3986 18.3326 23.3197ZM37.7151 20.513L31.357 18.4059C31.0187 18.2927 30.6471 18.2927 30.3087 18.4059L23.9507 20.513C22.5857 20.9644 21.6674 22.2354 21.6674 23.6712V29.208C21.6674 35.1545 27.8588 38.7074 29.7504 39.6519C29.7504 39.6519 30.2604 40 30.8354 40C31.4104 40 31.8053 39.7402 31.8053 39.7402C33.7269 38.9673 40 35.9224 40 29.2096V23.6729C40 22.237 39.0817 20.9661 37.7168 20.5147L37.7151 20.513ZM36.6651 29.2096C36.6651 33.5088 32.627 35.7458 30.9087 36.5037C29.3854 35.6875 24.999 33.0091 24.999 29.2096V23.6762L30.832 21.744L36.6651 23.6729V29.2096Z" fill="#476FFF"/>
</svg>
