<svg width="39" height="39" viewBox="0 0 39 39" fill="none" xmlns="http://www.w3.org/2000/svg">
<path d="M39 5.6875C39 2.54638 36.4536 0 33.3125 0C30.1714 0 27.625 2.54638 27.625 5.6875C27.625 7.956 28.9543 9.91413 30.875 10.8274V13.8125C30.875 16.0518 29.0518 17.875 26.8125 17.875H12.1875C10.7266 17.875 9.34375 18.2276 8.125 18.8533V10.8274C10.0457 9.91413 11.375 7.956 11.375 5.6875C11.375 2.54638 8.82862 0 5.6875 0C2.54638 0 0 2.54638 0 5.6875C0 7.956 1.32925 9.91413 3.25 10.8274V28.1726C1.32925 29.0859 0 31.044 0 33.3125C0 36.4536 2.54638 39 5.6875 39C8.82862 39 11.375 36.4536 11.375 33.3125C11.375 31.044 10.0457 29.0859 8.125 28.1726V26.8125C8.125 24.5732 9.94825 22.75 12.1875 22.75H26.8125C31.7411 22.75 35.75 18.7411 35.75 13.8125V10.8274C37.6707 9.91413 39 7.956 39 5.6875Z" fill="#476FFF"/>
</svg>
