<svg width="38" height="39" viewBox="0 0 38 39" fill="none" xmlns="http://www.w3.org/2000/svg">
<path d="M37.9151 36.8567L33.9853 25.2355C33.4742 23.7493 32.195 22.7897 30.7217 22.7897C29.2484 22.7897 27.9691 23.7509 27.4581 25.242L23.5298 36.8567C23.2436 37.7044 23.6964 38.625 24.5422 38.9135C25.3896 39.202 26.305 38.7449 26.5929 37.8989L27.3514 35.6573H34.092L34.8505 37.8989C35.0801 38.5731 35.7076 38.9994 36.382 38.9994C36.5534 38.9994 36.7297 38.9718 36.9011 38.9135C37.7469 38.625 38.2014 37.706 37.9135 36.8567H37.9151ZM28.4478 32.4157L30.5195 26.2907C30.6408 25.9325 30.8058 25.939 30.9238 26.2842L32.9971 32.4157H28.4478ZM25.3185 15.4799C24.5002 13.9337 22.9088 12.9725 21.1638 12.9725L14.9649 12.9677L16.9137 4.49574C17.4134 2.74851 16.6889 0.975354 15.193 0.28165C13.7698 -0.378017 12.1768 0.142261 11.1935 1.62043L0.81249 18.5757C-0.167556 20.0247 -0.267824 21.8853 0.54888 23.4316C1.36559 24.9778 2.95856 25.939 4.70518 25.939H10.8992L8.95204 34.4093C8.45232 36.1581 9.17684 37.9297 10.6728 38.6234C11.0819 38.813 11.5057 38.9054 11.9229 38.9054C12.9612 38.9054 13.9719 38.3381 14.6706 37.2846L25.0533 20.3358C26.0333 18.8868 26.1336 17.0262 25.3169 15.4815L25.3185 15.4799ZM22.3379 18.5757L12.0458 35.3753C12.0539 35.3283 14.5073 24.6812 14.5073 24.6812C14.6172 24.1998 14.504 23.6958 14.1967 23.3068C13.8895 22.921 13.4237 22.6957 12.9304 22.6957H4.70518C3.90626 22.6957 3.53107 22.1479 3.40654 21.9129C3.28201 21.6763 3.03943 21.0571 3.52783 20.3326L13.8199 3.52812C13.8118 3.57512 11.3585 14.2238 11.3585 14.2238C11.2485 14.7052 11.3617 15.2092 11.669 15.5966C11.9763 15.984 12.442 16.2093 12.9337 16.2093L21.1622 16.2158C21.9611 16.2158 22.3363 16.7636 22.4608 16.9986C22.5854 17.2336 22.8263 17.8512 22.3379 18.5757Z" fill="#476FFF"/>
</svg>
