<svg width="30" height="30" viewBox="0 0 30 30" fill="none" xmlns="http://www.w3.org/2000/svg">
<path d="M27.4311 14.3475L24.3048 13.3113C23.546 13.06 22.7072 13.06 21.9447 13.3113L18.8195 14.3475C17.2832 14.8575 16.2494 16.2875 16.2494 17.9075V21.8913C16.2494 26.3513 20.8921 29.02 22.3159 29.7312C22.3159 29.7312 22.5672 29.9887 23.126 29.9887C23.6847 29.9887 23.8535 29.7937 23.8535 29.7937C25.2961 29.2137 30 26.93 30 21.8913V17.9075C30 16.2888 28.9687 14.8587 27.4311 14.3475ZM27.5011 21.8913C27.5011 25.1188 24.471 26.7975 23.1822 27.3638C22.0372 26.75 18.7508 24.74 18.7508 21.8913V17.9075C18.7508 17.3675 19.0945 16.8912 19.6083 16.7212L22.7322 15.685C22.9885 15.6013 23.2672 15.6013 23.5197 15.685L26.6449 16.7212C27.1574 16.8912 27.5024 17.3688 27.5024 17.9075L27.5011 21.8913ZM16.2507 11.25H6.25026C5.56023 11.25 5.00021 10.69 5.00021 10C5.00021 9.31 5.56023 8.75 6.25026 8.75H16.2507C16.9407 8.75 17.5007 9.31 17.5007 10C17.5007 10.69 16.9407 11.25 16.2507 11.25ZM13.7506 15C13.7506 15.69 13.1905 16.25 12.5005 16.25H6.25026C5.56023 16.25 5.00021 15.69 5.00021 15C5.00021 14.31 5.56023 13.75 6.25026 13.75H12.5005C13.1905 13.75 13.7506 14.31 13.7506 15ZM13.7506 20C13.7506 20.69 13.1905 21.25 12.5005 21.25H6.25026C5.56023 21.25 5.00021 20.69 5.00021 20C5.00021 19.31 5.56023 18.75 6.25026 18.75H12.5005C13.1905 18.75 13.7506 19.31 13.7506 20ZM16.2507 28.75C16.2507 29.44 15.6907 30 15.0006 30H6.25026C2.80387 30 0 27.1962 0 23.75V8.75C0 5.30375 2.80387 2.5 6.25026 2.5H6.46402C6.98029 1.045 8.37035 0 10.0004 0H12.5005C14.1306 0 15.5206 1.045 16.0369 2.5H16.2507C19.6971 2.5 22.5009 5.30375 22.5009 8.75V10C22.5009 10.69 21.9409 11.25 21.2509 11.25C20.5609 11.25 20.0008 10.69 20.0008 10V8.75C20.0008 6.6825 18.3183 5 16.2507 5H15.0006C14.3106 5 13.7506 4.44 13.7506 3.75C13.7506 3.06 13.1893 2.5 12.5005 2.5H10.0004C9.31164 2.5 8.75036 3.06125 8.75036 3.75C8.75036 4.43875 8.19034 5 7.50031 5H6.25026C4.18267 5 2.5001 6.6825 2.5001 8.75V23.75C2.5001 25.8175 4.18267 27.5 6.25026 27.5H15.0006C15.6907 27.5 16.2507 28.06 16.2507 28.75Z" fill="#0036F5"/>
</svg>
