<svg width="24" height="24" viewBox="0 0 24 24" fill="none" xmlns="http://www.w3.org/2000/svg">
<g clip-path="url(#clip0_4209_452)">
<path d="M15 15.5C15 16.881 13.881 18 12.5 18C11.119 18 10 16.881 10 15.5C10 14.119 11.119 13 12.5 13C13.881 13 15 14.119 15 15.5ZM2.5 19C1.119 19 0 20.119 0 21.5C0 22.881 1.119 24 2.5 24C3.881 24 5 22.881 5 21.5C5 20.119 3.881 19 2.5 19ZM7.985 15.678C8.103 14.858 7.533 14.098 6.713 13.981C5.736 13.84 5 12.989 5 12.001C5 10.898 5.897 10.001 7 10.001H13.5C14.328 10.001 15 9.33002 15 8.50102C15 7.67202 14.328 7.00102 13.5 7.00102H7C4.243 7.00102 2 9.24402 2 12.001C2 14.473 3.843 16.601 6.287 16.95C6.359 16.961 6.431 16.966 6.502 16.966C7.236 16.966 7.877 16.426 7.985 15.678ZM19.5 14H18.5C17.672 14 17 14.672 17 15.5C17 16.328 17.672 17 18.5 17H19.5C20.327 17 21 17.673 21 18.5C21 19.327 20.327 20 19.5 20H8.5C7.671 20 7 20.672 7 21.5C7 22.328 7.671 23 8.5 23H19.5C21.981 23 24 20.981 24 18.5C24 16.019 21.981 14 19.5 14ZM18.5 10C19.328 10 20 9.32902 20 8.50002V5.05702L23.521 3.36402C24.16 2.96502 24.16 2.03502 23.521 1.63502L20.426 0.376023C19.814 0.127023 19.16 -0.000976562 18.5 -0.000976562C17.672 -0.000976562 17 0.670023 17 1.49902V8.49902C17 9.32802 17.672 9.99902 18.5 9.99902V10Z" fill="#476FFF"/>
</g>
<defs>
<clipPath id="clip0_4209_452">
<rect width="24" height="24" fill="white"/>
</clipPath>
</defs>
</svg>
