<svg width="30" height="21" viewBox="0 0 30 21" fill="none" xmlns="http://www.w3.org/2000/svg">
<path d="M29.8033 16.7204L27.9844 17.6299C27.4381 17.9015 26.996 18.3436 26.7244 18.8899L25.815 20.7088C25.6855 20.9709 25.3129 20.9709 25.1834 20.7088L24.274 18.8899C24.0024 18.3436 23.5603 17.9015 23.014 17.6299L21.1951 16.7204C20.933 16.591 20.933 16.2184 21.1951 16.0889L23.014 15.1794C23.5603 14.9079 24.0024 14.4658 24.274 13.9195L25.1834 12.1006C25.3129 11.8385 25.6855 11.8385 25.815 12.1006L26.7244 13.9195C26.996 14.4658 27.4381 14.9079 27.9844 15.1794L29.8033 16.0889C30.0654 16.2184 30.0654 16.591 29.8033 16.7204Z" fill="url(#paint0_linear_3927_1070)"/>
<path d="M20.5447 11.2355L16.3006 13.3576C15.028 13.9954 13.9954 15.028 13.3575 16.3006L11.2355 20.5447C10.9323 21.151 10.0671 21.151 9.76395 20.5447L7.6419 16.3006C7.00402 15.028 5.97141 13.9954 4.69882 13.3576L0.454721 11.2355C-0.151574 10.9324 -0.151574 10.0671 0.454721 9.76396L4.69882 7.64192C5.97141 7.00403 7.00402 5.97142 7.6419 4.69884L9.76395 0.454735C10.0671 -0.151578 10.9323 -0.151578 11.2355 0.454735L13.3575 4.69884C13.9954 5.97142 15.028 7.00403 16.3006 7.64192L20.5447 9.76396C21.151 10.0671 21.151 10.9324 20.5447 11.2355Z" fill="url(#paint1_linear_3927_1070)"/>
<path d="M21.1479 2.2767L22.0468 1.82726C22.3168 1.69305 22.5353 1.47457 22.6695 1.20459L23.1189 0.305704C23.1829 0.176175 23.367 0.176175 23.431 0.305704L23.8805 1.20459C24.0147 1.47457 24.2332 1.69305 24.5031 1.82726L25.402 2.2767C25.5316 2.34068 25.5316 2.52482 25.402 2.58881L24.5031 3.03826C24.2332 3.17246 24.0147 3.39094 23.8805 3.66092L23.431 4.55981C23.367 4.68777 23.1829 4.68777 23.1189 4.55981L22.6695 3.66092C22.5353 3.39094 22.3168 3.17246 22.0468 3.03826L21.1479 2.58881C21.0184 2.52482 21.0184 2.34068 21.1479 2.2767Z" fill="url(#paint2_linear_3927_1070)"/>
<defs>
<linearGradient id="paint0_linear_3927_1070" x1="20.9985" y1="16.6118" x2="30.6118" y2="16.6118" gradientUnits="userSpaceOnUse">
<stop stop-color="#2484FF"/>
<stop offset="1" stop-color="#5D3EC3"/>
</linearGradient>
<linearGradient id="paint1_linear_3927_1070" x1="-2.28602e-07" y1="10.983" x2="22.427" y2="10.983" gradientUnits="userSpaceOnUse">
<stop stop-color="#2484FF"/>
<stop offset="1" stop-color="#5D3EC3"/>
</linearGradient>
<linearGradient id="paint2_linear_3927_1070" x1="21.0508" y1="2.53451" x2="25.8016" y2="2.53451" gradientUnits="userSpaceOnUse">
<stop stop-color="#2484FF"/>
<stop offset="1" stop-color="#5D3EC3"/>
</linearGradient>
</defs>
</svg>
