<svg width="20" height="19" viewBox="0 0 20 19" fill="none" xmlns="http://www.w3.org/2000/svg">
<path d="M0.430026 8.51775C-0.338764 7.98284 -0.0162761 6.7793 0.916969 6.70045L5.9721 6.27334C6.38045 6.23884 6.72643 5.95867 6.84508 5.56641L8.31387 0.710555C8.58503 -0.185904 9.82933 -0.251117 10.1927 0.612088L12.161 5.28781C12.32 5.66552 12.6934 5.90799 13.1031 5.89962L18.1752 5.79598C19.1116 5.77685 19.5581 6.94009 18.8494 7.55243L15.0108 10.8693C14.7007 11.1372 14.5855 11.5673 14.7201 11.9543L16.386 16.7461C16.6935 17.6308 15.7252 18.4149 14.9239 17.9302L10.5831 15.3044C10.2325 15.0923 9.7879 15.1156 9.46135 15.3632L5.41887 18.4283C4.67257 18.9942 3.62758 18.3155 3.84098 17.4036L4.9969 12.4639C5.09028 12.0649 4.93074 11.6493 4.59434 11.4152L0.430026 8.51775Z" fill="#FFA200"/>
</svg>
