<svg width="45" height="30" viewBox="0 0 45 30" fill="none" xmlns="http://www.w3.org/2000/svg">
<path d="M7.44744 3.75L1.86046 3.75C0.831626 3.75 -1.11079e-06 4.58813 -1.06546e-06 5.625C-1.02014e-06 6.66187 0.831627 7.5 1.86046 7.5L5.7693 7.5C5.64651 8.10562 5.58139 8.73375 5.58139 9.375L5.58139 20.625C5.58139 21.2662 5.64651 21.8944 5.7693 22.5L1.86046 22.5C0.831627 22.5 -2.912e-07 23.3381 -2.45876e-07 24.375C-2.00553e-07 25.4119 0.831627 26.25 1.86046 26.25L7.44744 26.25C9.14604 28.5262 11.8474 30 14.8837 30L29.7674 30C32.8037 30 35.5051 28.5262 37.2037 26.25L42.7907 26.25C43.8195 26.25 44.6511 25.4119 44.6511 24.375C44.6511 23.3381 43.8195 22.5 42.7907 22.5L38.8818 22.5C39.0046 21.8944 39.0697 21.2662 39.0697 20.625L39.0697 9.375C39.0697 8.73375 39.0046 8.10562 38.8818 7.5L42.7907 7.5C43.8195 7.5 44.6511 6.66187 44.6511 5.625C44.6511 4.58812 43.8195 3.75 42.7907 3.75L37.2037 3.75C35.5051 1.47375 32.8037 4.73452e-07 29.7674 6.06172e-07L14.8837 1.25676e-06C11.8474 1.38948e-06 9.14604 1.47375 7.44744 3.75ZM29.7674 3.75C32.8446 3.75 35.3488 6.27375 35.3488 9.375L35.3488 20.625C35.3488 23.7262 32.8446 26.25 29.7674 26.25L14.8837 26.25C11.8065 26.25 9.30232 23.7262 9.30232 20.625L9.30232 9.375C9.30232 6.27375 11.8065 3.75 14.8837 3.75L29.7674 3.75Z" fill="#0036F5"/>
<path d="M27.2993 19.9388C28.0324 19.3932 28.0324 18.5113 27.2993 17.9657L24.0986 15.5837V10.5796C24.0986 9.80796 23.2605 9.1842 22.2236 9.1842C21.1868 9.1842 20.3486 9.80796 20.3486 10.5796V16.1614C20.3486 16.5326 20.5455 16.8856 20.898 17.148L24.648 19.9388C25.0136 20.2109 25.4936 20.3477 25.9736 20.3477C26.4536 20.3477 26.9336 20.2109 27.2993 19.9388Z" fill="#0036F5"/>
</svg>
