<svg width="17" height="15" viewBox="0 0 17 15" fill="none" xmlns="http://www.w3.org/2000/svg">
<path d="M16.3321 3.09668L10.5926 8.83618C9.95267 9.47453 9.08566 9.83301 8.18175 9.83301C7.27784 9.83301 6.41083 9.47453 5.77086 8.83618L0.0313634 3.09668C0.021818 3.20441 0 3.30191 0 3.40895V11.5907C0.00108262 12.4945 0.360598 13.361 0.999687 14.0001C1.63878 14.6392 2.50525 14.9987 3.40906 14.9998H12.9544C13.8582 14.9987 14.7247 14.6392 15.3638 14.0001C16.0029 13.361 16.3624 12.4945 16.3635 11.5907V3.40895C16.3635 3.30191 16.3417 3.20441 16.3321 3.09668Z" fill="white"/>
<path d="M9.62861 7.87221L15.8563 1.64385C15.5546 1.14362 15.1291 0.729565 14.6208 0.44163C14.1125 0.153696 13.5387 0.0015959 12.9545 0H3.40912C2.82496 0.0015959 2.25106 0.153696 1.74279 0.44163C1.23451 0.729565 0.809012 1.14362 0.507324 1.64385L6.735 7.87221C7.11925 8.25492 7.63948 8.46979 8.1818 8.46979C8.72413 8.46979 9.24436 8.25492 9.62861 7.87221Z" fill="white"/>
</svg>
