<svg width="15" height="15" viewBox="0 0 15 15" fill="none" xmlns="http://www.w3.org/2000/svg">
<g clip-path="url(#clip0_3927_3377)">
<path d="M14.3752 6.87512C14.2094 6.87512 14.0505 6.80928 13.9332 6.69207C13.816 6.57486 13.7502 6.41588 13.7502 6.25012C13.7489 4.92445 13.2217 3.65345 12.2843 2.71605C11.3469 1.77866 10.0759 1.25145 8.75019 1.25012C8.58442 1.25012 8.42545 1.18428 8.30824 1.06707C8.19103 0.949855 8.12519 0.790884 8.12519 0.625123C8.12519 0.459363 8.19103 0.300392 8.30824 0.183182C8.42545 0.0659713 8.58442 0.000123229 8.75019 0.000123229C10.4072 0.00194298 11.9959 0.661008 13.1676 1.83272C14.3393 3.00442 14.9984 4.59308 15.0002 6.25012C15.0002 6.41588 14.9343 6.57486 14.8171 6.69207C14.6999 6.80928 14.5409 6.87512 14.3752 6.87512ZM12.5002 6.25012C12.5002 5.25556 12.1051 4.30173 11.4018 3.59847C10.6986 2.89521 9.74475 2.50012 8.75019 2.50012C8.58442 2.50012 8.42545 2.56597 8.30824 2.68318C8.19103 2.80039 8.12519 2.95936 8.12519 3.12512C8.12519 3.29088 8.19103 3.44985 8.30824 3.56707C8.42545 3.68428 8.58442 3.75012 8.75019 3.75012C9.41323 3.75012 10.0491 4.01352 10.518 4.48236C10.9868 4.9512 11.2502 5.58708 11.2502 6.25012C11.2502 6.41588 11.316 6.57486 11.4332 6.69207C11.5505 6.80928 11.7094 6.87512 11.8752 6.87512C12.0409 6.87512 12.1999 6.80928 12.3171 6.69207C12.4343 6.57486 12.5002 6.41588 12.5002 6.25012ZM13.8646 13.8526L14.4333 13.197C14.7953 12.8338 14.9986 12.342 14.9986 11.8292C14.9986 11.3164 14.7953 10.8245 14.4333 10.4614C14.4139 10.442 12.9102 9.28512 12.9102 9.28512C12.5493 8.94158 12.0699 8.75029 11.5716 8.75099C11.0733 8.75168 10.5945 8.94432 10.2346 9.28887L9.04331 10.2926C8.07092 9.89018 7.18761 9.29961 6.44411 8.55482C5.70061 7.81004 5.11157 6.92571 4.71081 5.95262L5.71081 4.76512C6.05563 4.40523 6.2485 3.9263 6.24931 3.42788C6.25012 2.92945 6.05883 2.44989 5.71518 2.08887C5.71518 2.08887 4.55706 0.586998 4.53768 0.567623C4.18109 0.208716 3.69761 0.00451199 3.1917 -0.000867532C2.68579 -0.00624705 2.19808 0.18763 1.83393 0.538873L1.11518 1.16387C-3.13107 6.09012 6.01268 15.1632 11.1014 15.0001C11.6153 15.0031 12.1246 14.9031 12.5991 14.706C13.0737 14.5089 13.504 14.2188 13.8646 13.8526Z" fill="white"/>
</g>
<defs>
<clipPath id="clip0_3927_3377">
<rect width="15" height="15" fill="white"/>
</clipPath>
</defs>
</svg>
